<svg id="Calque_1" data-name="Calque 1" xmlns="http://www.w3.org/2000/svg" viewBox="0 0 166.62 205.03">
  <title>Logo-101</title>
  <polygon points="9.45 59.6 33.89 59.6 33.89 145.41 17.67 145.41 17.67 74.94 0 74.94 9.45 59.6" style="fill: #231f20"/>
  <polygon points="142.18 59.6 166.62 59.6 166.62 145.41 150.4 145.41 150.4 74.94 132.73 74.94 142.18 59.6" style="fill: #231f20"/>
  <polygon points="84.49 46.65 80.12 46.65 80.12 31.31 83.02 31.31 83.02 43.91 86.17 43.91 84.49 46.65" style="fill: #231f20"/>
  <path d="M74,143.46c.26.19.5.39.76.57q6.58,4.5,16.28,4.49t16-4.46q6.37-4.46,10.13-14t3.76-26.6q0-16.93-3.71-26.41c-.25-.65-.53-1.27-.8-1.89L104.25,94.75c.22,2.69.34,5.63.34,8.91q0,16.68-4.25,23.8-3.49,5.89-9.43,5.9a10.73,10.73,0,0,1-8.27-3.86Zm33.39-80c-.21-.15-.42-.32-.63-.47a28.23,28.23,0,0,0-16.19-4.61Q76.06,58.39,68,70.06q-7.29,10.62-7.29,34.25,0,16.92,3.73,26.07c.18.43.37.84.56,1.26l12.27-19.73c-.15-2.23-.23-4.64-.23-7.26q0-12.48,1.69-18.95t4.89-9.13a11.14,11.14,0,0,1,7.34-2.66,10.19,10.19,0,0,1,7.75,3.54Z" transform="translate(-1.73 -0.95)" style="fill: #231f20"/>
  <polygon points="89.52 46.65 97.9 46.65 97.9 43.78 92.42 43.78 92.42 39.74 97.9 39.74 97.9 36.94 92.42 36.94 92.42 34.16 97.9 34.16 97.9 31.31 89.52 31.31 89.52 46.65" style="fill: #231f20"/>
  <g>
    <path d="M146.32,1l0,0h-1.11L97.94,76.74c.23.21.45.43.67.66l.07,0Z" transform="translate(-1.73 -0.95)" style="fill: #231f20"/>
    <path d="M82.64,129.51,35,205.94l0,0h1.11l47.2-75.74c-.24-.23-.48-.47-.72-.73" transform="translate(-1.73 -0.95)" style="fill: #231f20"/>
  </g>
</svg>