<svg id="Calque_2" data-name="Calque 2" xmlns="http://www.w3.org/2000/svg" viewBox="0 0 356 442.29">
    <title>
        Vectorisation_logo101
    </title>
    <style>
        .cls-1 {
            stroke: #c2c2d3;
        }
        polygon, path {
            fill: #c2c2d3;
        }       
    </style>
    <polygon points="39 313.27 72 313.27 72 129.27 39 129.27 20 129.27 0 163.27 39 162.27 39 313.27" />
    <polygon points="323 313.27 356 313.27 356 129.27 323 129.27 304 129.27 284 163.27 323 162.27 323 313.27"/>
    <polygon points="176.5 69.83 171 69.83 171 102.27 176.5 102.27 179.67 102.27 183 96.28 176.5 96.45 176.5 69.83"/>
    <polygon points="197 102.27 191 102.27 191 70.27 197 70.27 209 70.27 209 75.27 197 75.27 197 81.27 209 81.27 209 87.27 197 87.44 197 96.52 209 96.27 209 102.27 197 102.27"/>
    <path d="M221.25,202.2c.54,6.3.75,13.05.75,20.07,0,34.8-5,63-31,63-7.21,0-12.79-2.17-17.11-6l-18,29.28A62.55,62.55,0,0,0,191,319.27h0a63.19,63.19,0,0,0,63-63v-68a62.44,62.44,0,0,0-6.78-28.3Z"/>
    <path d="M160,222.27c0-34.79,5-63,31-63,6.76,0,12.08,1.92,16.28,5.35l17.94-29.16A62.55,62.55,0,0,0,191,125.27h0a63.19,63.19,0,0,0-63,63v68a62.4,62.4,0,0,0,6.21,27.19l26.39-42.92C160.17,234.75,160,228.62,160,222.27Z"/>
    <path class="cls-1" d="M307.77.26l-83,135"/>
    <path class="cls-1" d="M74.36,442l82-133.31"/>
</svg>