<svg xmlns="http://www.w3.org/2000/svg" viewBox="0 0 701 468"><title>placeholder_profil</title><g id="Calque_1" data-name="Calque 1"><g id="_Groupe_" data-name="&lt;Groupe&gt;"><polygon points="700.5 338.5 700.5 467.5 578.5 467.5 700.5 338.5" style="fill:#ccc"/><polygon points="700.5 77.5 700.5 338.5 542.41 242.57 654.38 71.12 700.5 77.5" style="fill:#ccc"/><polygon points="700.5 0.5 700.5 77.5 654.38 71.12 700.5 0.5" style="fill:#b3b3b3"/><polygon points="700.5 0.5 654.38 71.12 622.63 66.74 700.5 0.5" style="fill:#e6e6e6"/><polygon points="700.5 338.5 578.5 467.5 561.89 364.04 700.5 338.5" style="fill:#e6e6e6"/><polygon points="504.18 4.73 503.5 0.5 700.5 0.5 622.63 66.74 511.67 51.4 504.18 4.73" style="fill:#b3b3b3"/><polygon points="700.5 338.5 561.89 364.04 542.38 242.6 542.41 242.57 700.5 338.5" style="fill:#b3b3b3"/><polygon points="654.38 71.12 542.41 242.57 542.37 242.54 527.18 147.93 622.63 66.74 654.38 71.12" style="fill:#b3b3b3"/><polygon points="511.67 51.4 622.63 66.74 527.18 147.93 511.67 51.4" style="fill:#ccc"/><polygon points="561.89 364.04 578.5 467.5 491.5 467.5 452.28 384.24 561.89 364.04" style="fill:#ccc"/><polygon points="561.89 364.04 452.28 384.24 451.27 382.11 542.38 242.6 561.89 364.04" style="fill:#e6e6e6"/><polygon points="542.37 242.54 542.41 242.57 542.38 242.6 542.37 242.54" style="fill:#b3b3b3"/><polygon points="542.37 242.54 542.38 242.6 451.27 382.11 394.23 261.02 468.59 197.77 542.37 242.54" style="fill:#b3b3b3"/><polygon points="527.18 147.93 542.37 242.54 468.59 197.77 527.18 147.93" style="fill:#ccc"/><polygon points="511.67 51.4 527.18 147.93 468.59 197.77 341.22 120.48 450.4 42.93 511.67 51.4" style="fill:#b3b3b3"/><polygon points="504.18 4.73 511.67 51.4 450.4 42.93 504.18 4.73" style="fill:#ccc"/><polygon points="503.5 0.5 504.18 4.73 450.4 42.93 280.42 19.43 271.5 0.5 503.5 0.5" style="fill:#e6e6e6"/><polygon points="452.28 384.24 491.5 467.5 395.5 467.5 449.55 384.75 452.28 384.24" style="fill:#b3b3b3"/><polygon points="468.59 197.77 394.23 261.02 331.33 127.5 341.22 120.48 468.59 197.77" style="fill:#e6e6e6"/><polygon points="452.28 384.24 449.55 384.75 451.27 382.11 452.28 384.24" style="fill:#b3b3b3"/><polygon points="394.23 261.02 451.27 382.11 449.55 384.75 359.77 401.29 318.74 325.24 394.23 261.02" style="fill:#ccc"/><polygon points="450.4 42.93 341.22 120.48 322.74 109.27 280.42 19.43 450.4 42.93" style="fill:#ccc"/><polygon points="449.55 384.75 395.5 467.5 359.77 401.29 449.55 384.75" style="fill:#e6e6e6"/><polygon points="359.77 401.29 395.5 467.5 326.18 407.48 359.77 401.29" style="fill:#b3b3b3"/><polygon points="395.5 467.5 151.5 467.5 193.26 431.98 326.18 407.48 395.5 467.5" style="fill:#ccc"/><polygon points="331.33 127.5 394.23 261.02 318.74 325.24 245.09 188.76 331.33 127.5" style="fill:#b3b3b3"/><polygon points="318.74 325.24 359.77 401.29 326.18 407.48 274.58 362.8 318.74 325.24" style="fill:#e6e6e6"/><polygon points="341.22 120.48 331.33 127.5 322.74 109.27 341.22 120.48" style="fill:#b3b3b3"/><polygon points="331.33 127.5 245.09 188.76 189.74 86.19 224.56 49.69 322.74 109.27 331.33 127.5" style="fill:#ccc"/><polygon points="326.18 407.48 193.26 431.98 274.58 362.8 326.18 407.48" style="fill:#b3b3b3"/><polygon points="322.74 109.27 224.56 49.69 256.58 16.13 280.42 19.43 322.74 109.27" style="fill:#b3b3b3"/><polygon points="318.74 325.24 274.58 362.8 150.87 255.69 245.09 188.76 318.74 325.24" style="fill:#b3b3b3"/><polygon points="271.5 0.5 280.42 19.43 256.58 16.13 271.5 0.5" style="fill:#b3b3b3"/><polygon points="274.58 362.8 193.26 431.98 131.57 443.35 41.37 334.03 41.59 333.31 150.87 255.69 274.58 362.8" style="fill:#ccc"/><polygon points="271.5 0.5 256.58 16.13 143.5 0.5 271.5 0.5" style="fill:#e6e6e6"/><polygon points="256.58 16.13 224.56 49.69 143.5 0.5 256.58 16.13" style="fill:#ccc"/><polygon points="189.74 86.19 245.09 188.76 150.87 255.69 83.58 197.43 189.74 86.19" style="fill:#e6e6e6"/><polygon points="224.56 49.69 189.74 86.19 143.5 0.5 224.56 49.69" style="fill:#b3b3b3"/><polygon points="193.26 431.98 151.5 467.5 131.57 443.35 193.26 431.98" style="fill:#b3b3b3"/><polygon points="143.5 0.5 189.74 86.19 83.58 197.43 83.28 197.17 143.5 0.5" style="fill:#ccc"/><polygon points="131.57 443.35 151.5 467.5 0.5 467.5 131.57 443.35" style="fill:#e6e6e6"/><polygon points="150.87 255.69 41.59 333.31 83.02 198.03 83.58 197.43 150.87 255.69" style="fill:#b3b3b3"/><polygon points="143.5 0.5 83.28 197.17 0.5 125.5 143.5 0.5" style="fill:#b3b3b3"/><polygon points="143.5 0.5 0.5 125.5 0.5 0.5 143.5 0.5" style="fill:#ccc"/><polygon points="41.37 334.03 131.57 443.35 0.5 467.5 41.37 334.03" style="fill:#b3b3b3"/><polygon points="83.58 197.43 83.02 198.03 83.28 197.17 83.58 197.43" style="fill:#b3b3b3"/><polygon points="83.28 197.17 83.02 198.03 0.5 284.5 0.5 125.5 83.28 197.17" style="fill:#e6e6e6"/><polygon points="83.02 198.03 41.59 333.31 41.08 333.68 0.5 284.5 83.02 198.03" style="fill:#ccc"/><polygon points="41.08 333.68 41.59 333.31 41.37 334.03 41.08 333.68" style="fill:#b3b3b3"/><polygon points="41.37 334.03 0.5 467.5 0.5 362.5 41.08 333.68 41.37 334.03" style="fill:#ccc"/><polygon points="0.5 284.5 41.08 333.68 0.5 362.5 0.5 284.5" style="fill:#b3b3b3"/></g></g><g id="Calque_2" data-name="Calque 2"><ellipse cx="361.5" cy="233.5" rx="98.5" ry="91.89" style="fill:#f2f2f2"/><path d="M451.28,305.83a116,116,0,0,1-187.56-9.62C209.57,332.56,173,401.69,173,481c0,117.08,79.69,212,178,212s178-94.92,178-212C529,408.22,498.2,344,451.28,305.83Z" style="fill:#f2f2f2"/></g></svg>